<?xml version="1.0" encoding="UTF-8"?>
<svg version="1.1" xmlns="http://www.w3.org/2000/svg" width="1280" height="1280">
<path d="M0 0 C0.52787109 0.44569336 1.05574219 0.89138672 1.59960938 1.35058594 C29.24756174 24.96316894 42.14949874 58.27251486 45 94 C47.66732403 136.09150218 35.88381503 177.38903821 23 217 C22.78063782 217.67528748 22.56127563 218.35057495 22.33526611 219.04632568 C9.92387472 257.13484364 -4.99143679 294.29771458 -21 331 C-21.78063579 332.79409205 -22.56123415 334.58820038 -23.34179688 336.38232422 C-35.33607927 363.91909263 -47.74455938 391.23174839 -60.99609375 418.1875 C-61.414319 419.0400235 -61.83254425 419.892547 -62.26344299 420.77090454 C-64.30284863 424.92750076 -66.35008012 429.07979223 -68.41430664 433.22412109 C-69.15148421 434.71958868 -69.888396 436.21518732 -70.625 437.7109375 C-71.13932838 438.731875 -71.13932838 438.731875 -71.66404724 439.7734375 C-73.33470937 443.18692753 -74 445.1139416 -74 449 C-72.69482422 448.98952637 -71.38964844 448.97905273 -70.04492188 448.96826172 C-47.49503909 448.80393638 -24.96296627 448.68246554 -2.4375 449.875 C-1.62164429 449.91795197 -0.80578857 449.96090393 0.03479004 450.00515747 C7.99785483 450.43551531 15.94404659 450.96835759 23.88671875 451.68359375 C25.6500354 451.84142334 25.6500354 451.84142334 27.44897461 452.00244141 C29.56745587 452.20142604 31.68447338 452.41710355 33.79907227 452.65380859 C34.70584717 452.74355957 35.61262207 452.83331055 36.546875 452.92578125 C37.31870117 453.01255127 38.09052734 453.09932129 38.88574219 453.1887207 C41.80010669 452.9285817 42.93053656 452.05408613 45 450 C46.37200293 447.40258428 46.37200293 447.40258428 47.41796875 444.33203125 C47.85850586 443.14963867 48.29904297 441.96724609 48.75292969 440.74902344 C48.98508179 440.11089722 49.21723389 439.472771 49.4564209 438.81530762 C50.73847082 435.30310306 52.07058223 431.8100048 53.40234375 428.31640625 C53.8295018 427.19406082 53.8295018 427.19406082 54.26528931 426.04904175 C64.93180538 398.20653787 77.36727993 370.99565682 90 344 C90.50772949 342.91396484 91.01545898 341.82792969 91.53857422 340.70898438 C98.17752505 326.57195111 105.15276837 312.59968036 112.125 298.625 C112.54084351 297.79054352 112.95668701 296.95608704 113.38513184 296.09634399 C119.06240124 284.714168 124.88233716 273.41610427 130.84362793 262.18011475 C131.92382653 260.14361028 133.00111235 258.1056007 134.07714844 256.06689453 C141.77318359 241.49321333 149.58771584 227.0041692 157.76171875 212.69140625 C160.1043151 208.5891538 162.41406097 204.47004235 164.70703125 200.33984375 C165.64071533 198.66015503 165.64071533 198.66015503 166.59326172 196.9465332 C167.78392482 194.80211018 168.97194394 192.656216 170.15673828 190.50854492 C180.76727138 171.43436312 180.76727138 171.43436312 191.640625 166.8984375 C200.52298496 164.52292263 212.60806145 164.19253524 221 168.1875 C228.16186651 172.6683866 231.63971357 179.4502987 233.58489037 187.53694916 C234.44287961 192.62782384 234.28532343 197.77785921 234.2746582 202.92675781 C234.27976913 204.2058754 234.28488007 205.48499298 234.29014587 206.8028717 C234.30346949 210.29279123 234.30412176 213.78260202 234.30158257 217.272542 C234.30050787 220.19705239 234.30540918 223.12154123 234.310188 226.04604697 C234.32126125 232.95340339 234.32173356 239.86070542 234.31567383 246.76806641 C234.3096418 253.86626531 234.32193035 260.96426559 234.3432439 268.06243062 C234.36092956 274.17993906 234.36685015 280.29738469 234.36360615 286.41491771 C234.36180347 290.05823468 234.36432658 293.70141012 234.37832069 297.34470367 C234.39337183 301.4151523 234.38386844 305.48520393 234.37231445 309.55566406 C234.37995819 310.74360062 234.38760193 311.93153717 234.39547729 313.1554718 C234.2626563 334.43953512 224.45657619 351.03272152 213.890625 368.79296875 C199.67073755 392.91389354 186.69260464 417.79872304 173.7890625 442.640625 C171.49737391 447.05152667 169.18573724 451.45152272 166.86401367 455.84667969 C165.61755437 458.20819515 164.37640924 460.57242582 163.13671875 462.9375 C161.86456431 465.36448239 160.5770339 467.77909782 159.26953125 470.1875 C155.79442812 476.29357021 155.79442812 476.29357021 156 483 C159.60953772 485.79923333 163.3495818 487.66883742 167.4140625 489.73828125 C182.5075549 497.49162434 196.37058156 506.2660514 202.5 523 C205.38550294 533.73407093 206.348975 548.89215044 201 559 C196.96028116 565.25116384 192.1224012 568.86689507 185 571 C169.82969322 574.11401582 155.96191901 571.07915446 141.60546875 566.17578125 C140.67629639 565.85875244 139.74712402 565.54172363 138.78979492 565.21508789 C136.97368421 564.58683151 135.16227463 563.94476064 133.35668945 563.28686523 C132.51710693 562.99110596 131.67752441 562.69534668 130.8125 562.390625 C130.07644531 562.12282227 129.34039063 561.85501953 128.58203125 561.57910156 C124.99864373 560.77541442 121.66996541 560.91377325 118 561 C89.48846904 631.51445237 68.12730215 703.13688204 59.37963867 778.80688477 C57.63554816 793.41956223 55.11179993 806.87282033 43.14453125 816.59765625 C39.64027378 818.88914702 36.05121181 820.0463249 32 821 C31.071875 821.226875 30.14375 821.45375 29.1875 821.6875 C17.9665215 822.78759593 5.57608536 822.7244543 -4 816 C-18.92617276 803.40864756 -19.33213165 781.40319476 -20.91650391 763.34082031 C-25.61836917 704.29217002 -14.91842406 646.36686327 -0.375 589.375 C-0.15124695 588.49628235 0.0725061 587.6175647 0.30303955 586.71221924 C2.97594577 576.26398772 5.84468091 565.8993398 9.05215454 555.60140991 C10.34370235 551.4124904 11.40900524 547.35935248 12 543 C-24.10580979 540.6741846 -60.32505209 539.53517245 -96.42578125 542.50390625 C-100.88459268 542.86882008 -105.32066199 543.10053353 -109.79296875 543.21484375 C-111.39990601 543.25847046 -111.39990601 543.25847046 -113.03930664 543.30297852 C-115.02646592 543.34935972 -117.01405317 543.38096072 -119.00170898 543.39428711 C-123.91105936 543.4769201 -123.91105936 543.4769201 -128.2734375 545.47265625 C-130.8503591 549.24475642 -133.20338581 553.11430369 -135.5 557.0625 C-136.58698296 558.89805935 -137.67555974 560.73267568 -138.765625 562.56640625 C-139.31283203 563.48824707 -139.86003906 564.41008789 -140.42382812 565.35986328 C-155.90544682 591.2920542 -172.80477134 616.89118347 -191 641 C-191.63341309 641.84014648 -192.26682617 642.68029297 -192.91943359 643.54589844 C-196.99190991 648.93534471 -201.09014391 654.30454032 -205.20507812 659.66162109 C-206.78147952 661.71531703 -208.35305632 663.77254185 -209.921875 665.83203125 C-220.61029776 679.8419318 -231.857881 693.46621991 -243.734375 706.48828125 C-244.97044914 707.85861861 -246.20044569 709.2349558 -247.39819336 710.63891602 C-252.98173413 717.16022805 -259.00003822 723.2414032 -265.0625 729.3125 C-265.61869019 729.8700296 -266.17488037 730.4275592 -266.7479248 731.00198364 C-274.75380553 739.00368773 -282.81376313 746.35237615 -292 753 C-293.05970485 753.84137535 -294.11431413 754.68920344 -295.1640625 755.54296875 C-311.81207548 769.01763657 -327.97758975 776.69933093 -350 775 C-361.92935966 773.29756811 -370.76903502 770.61385771 -378.53125 761.12890625 C-385.18508046 751.48439135 -384.00404778 736.76101797 -382.56640625 725.6484375 C-380.03914809 714.50338599 -371.73907387 706.92516985 -362.80859375 700.3984375 C-356.98453145 696.12408221 -352.71831833 691.34098717 -348.296875 685.64550781 C-346.8916201 683.86248484 -345.45055797 682.11353476 -344 680.3671875 C-336.46121293 671.2721761 -329.448891 661.886467 -322.61181641 652.25585938 C-321.04242794 650.05938112 -319.45343973 647.87887371 -317.85546875 645.703125 C-305.68208159 629.10202389 -294.43878978 611.87620529 -283.3125 594.5625 C-282.32382935 593.02710571 -282.32382935 593.02710571 -281.31518555 591.46069336 C-277.66301485 585.7452987 -274.2201252 579.96902539 -271 574 C-278.78595279 575.17324827 -286.31783354 576.73118217 -293.90234375 578.8359375 C-296.00392708 579.40612233 -298.10565912 579.97575928 -300.20751953 580.54492188 C-301.3027594 580.84325928 -302.39799927 581.14159668 -303.52642822 581.44897461 C-351.59017494 594.49714619 -400.305146 606.38619998 -450 611 C-450.74620605 611.07057617 -451.49241211 611.14115234 -452.26123047 611.21386719 C-513.18684379 616.70632649 -575.38485317 604.17132935 -623.20874023 564.77124023 C-657.18127217 536.30400065 -675.26036276 498.15052744 -682 455 C-682.11859375 454.29842773 -682.2371875 453.59685547 -682.359375 452.87402344 C-690.40883724 405.17616834 -677.02964898 348.54284984 -649.51953125 308.78417969 C-645.87998501 303.69413248 -642.01167063 298.79951565 -638 294 C-637.34451172 293.16082031 -637.34451172 293.16082031 -636.67578125 292.3046875 C-633.87231164 288.74679583 -630.7063502 285.87671674 -627.265625 282.96484375 C-625.69631983 281.60387737 -624.16681007 280.19616743 -622.671875 278.75390625 C-598.63142756 255.70899881 -567.34969406 245.23282646 -535 240 C-534.31905273 239.88962402 -533.63810547 239.77924805 -532.93652344 239.66552734 C-493.57998389 233.48871009 -449.17398181 235.60228738 -412.41796875 251.984375 C-410.2770931 252.88361194 -408.26508964 253.51424651 -406 254 C-403.68398346 249.7298699 -402.31244383 245.8051564 -401.2734375 241.06640625 C-400.96609839 239.69793557 -400.65846834 238.3295302 -400.35058594 236.96118164 C-400.19231323 236.24543976 -400.03404053 235.52969788 -399.87097168 234.79226685 C-383.86744569 162.84434495 -358.07284476 95.36527658 -307 41 C-306.07960938 40.01580078 -306.07960938 40.01580078 -305.140625 39.01171875 C-300.16658486 33.86003432 -294.60996464 29.43360344 -289 25 C-288.38334473 24.50693359 -287.76668945 24.01386719 -287.13134766 23.50585938 C-276.58512799 15.09791231 -265.73739433 7.64806783 -254 1 C-253.18547363 0.53851563 -252.37094727 0.07703125 -251.53173828 -0.3984375 C-222.27019938 -16.76726436 -191.06889726 -26.09189013 -158 -31 C-157.1244043 -31.13277344 -156.24880859 -31.26554688 -155.34667969 -31.40234375 C-104.69033396 -38.68867065 -40.47160853 -34.32260724 0 0 Z M-167 98 C-168.43883545 98.60255615 -168.43883545 98.60255615 -169.90673828 99.21728516 C-202.55766805 112.9971784 -230.66884006 132.26619335 -252.8359375 160.27734375 C-255.09590563 163.12066105 -257.4488946 165.86746036 -259.8125 168.625 C-299.70983548 216.53880165 -323.5912419 276.14609338 -335.625 336.75 C-343.14678563 374.60343217 -343.14678563 374.60343217 -353.28515625 381.5703125 C-366.46112437 388.69796141 -382.13897708 388.61058601 -396.4453125 385.171875 C-402.6228983 383.13530825 -408.22877556 380.07262877 -413.96777344 377.04638672 C-443.33222105 361.92673001 -474.61589962 357.0883439 -506.49609375 367.09765625 C-530.84042304 375.71899736 -550.92774792 393.24289014 -562.625 416.1875 C-568.24809244 428.2004702 -568.73383821 440.18061433 -564.3203125 452.7421875 C-559.99381291 463.41763323 -555.17032209 471.84439921 -547 480 C-546.45988281 480.61101562 -545.91976562 481.22203125 -545.36328125 481.8515625 C-529.10100328 499.79332005 -501.24718463 507.6783262 -477.90759277 509.13015747 C-472.50198905 509.36261954 -467.09736618 509.39056834 -461.6875 509.375 C-460.83630585 509.37312683 -459.98511169 509.37125366 -459.10812378 509.36932373 C-426.29879967 509.21463286 -395.21117416 502.65803749 -363.27740479 495.7121582 C-353.25262128 493.5338396 -343.22200206 491.38307433 -333.1875 489.25 C-332.04106018 489.00589386 -330.89462036 488.76178772 -329.71343994 488.51028442 C-304.25574583 483.10870178 -278.68234031 478.3485125 -253.09057617 473.63183594 C-252.30646331 473.48729131 -251.52235044 473.34274668 -250.71447659 473.19382191 C-246.36355762 472.39220121 -242.01204017 471.59396962 -237.65982723 470.7994051 C-235.71647199 470.44144868 -233.77492896 470.07369825 -231.83343506 469.70578003 C-229.19739959 469.22045521 -226.57381514 468.77180959 -223.92681885 468.36184692 C-216.64228727 467.17736508 -210.61017875 466.15663512 -206 460 C-204.11394315 457.11766291 -202.59025432 454.14223733 -201.109375 451.03515625 C-200.6831485 450.17420853 -200.256922 449.3132608 -199.81777954 448.42622375 C-198.44610159 445.64573341 -197.09779 442.85463649 -195.75 440.0625 C-194.80158898 438.12713129 -193.85187518 436.19240047 -192.90087891 434.25830078 C-190.62914387 429.62792491 -188.37587924 424.98892956 -186.13269043 420.34466553 C-185.17870512 418.36991902 -184.22111465 416.39691472 -183.26269531 414.42431641 C-180.6653775 409.07779611 -178.11251956 403.71175029 -175.57958984 398.33447266 C-173.99528012 394.99003646 -172.39674917 391.65274057 -170.79496765 388.31665039 C-145.93082132 336.53033857 -123.37449471 283.46833862 -104.72149658 229.10125732 C-103.96470571 226.89721034 -103.20299354 224.69490066 -102.44091797 222.49267578 C-95.54500845 202.51913491 -89.20848338 182.48834694 -84 162 C-83.73574219 160.96617187 -83.47148438 159.93234375 -83.19921875 158.8671875 C-76.50421141 133.14900922 -76.50421141 133.14900922 -82.625 108.03515625 C-89.65806749 97.62541716 -98.2311542 90.92879659 -110.60400391 88.38378906 C-130.1586177 85.25154402 -149.10388886 90.47570535 -167 98 Z " fill="#010101" transform="translate(824,254)"/>
<path d="M0 0 C2.95325468 -0.00965274 5.90579606 -0.0407292 8.85888672 -0.07226562 C24.91181225 -0.16273327 40.37960874 1.39261149 55.80029297 6.05273438 C56.67355225 6.31135254 57.54681152 6.5699707 58.4465332 6.83642578 C85.21432197 14.97746276 107.5538378 31.6595544 121.35888672 56.15039062 C130.09321947 72.71839352 133.22938407 90.00487055 133.30029297 108.61523438 C133.30324371 109.29675568 133.30619446 109.97827698 133.30923462 110.68045044 C133.32241578 124.16202308 131.5953789 137.01417753 128.98779297 150.24023438 C128.67360585 151.94020546 128.36224259 153.64070178 128.05419922 155.34179688 C127.39190915 158.97997187 126.70159265 162.61175267 125.98779297 166.24023438 C125.32779297 166.24023438 124.66779297 166.24023438 123.98779297 166.24023438 C123.80216797 167.87992187 123.80216797 167.87992187 123.61279297 169.55273438 C123.17659611 172.93475387 122.71128178 176.31001709 122.17529297 179.67773438 C122.04509766 180.52207031 121.91490234 181.36640625 121.78076172 182.23632812 C121.11788078 184.74743868 120.36062042 186.69784866 119.26904297 189.02539062 C116.32462703 195.44103387 114.25995927 202.16835178 112.07489014 208.86935425 C110.74612052 212.93644049 109.39567023 216.99632294 108.04638672 221.05664062 C107.77916809 221.86122208 107.51194946 222.66580353 107.2366333 223.49476624 C95.40678006 259.07110142 81.17507979 293.94382628 65.90771484 328.1763916 C64.9011046 330.43471956 63.89750646 332.69437371 62.89404297 334.95410156 C54.14903616 354.6308171 45.24537132 374.20391603 35.77954102 393.5456543 C33.90352809 397.39833825 32.06539849 401.26891446 30.22338867 405.13793945 C24.59343013 416.95662967 18.84538809 428.71133906 12.99047852 440.42016602 C11.54966303 443.30399521 10.1153231 446.19098669 8.68115234 449.078125 C2.52077244 461.43541448 -3.93628913 473.60010206 -10.61071777 485.68682861 C-12.5945532 489.30122436 -14.54408569 492.93375754 -16.49412537 496.56646729 C-23.90900552 510.37355319 -31.9339729 523.81479943 -40.01220703 537.24023438 C-40.63981934 538.2848584 -41.26743164 539.32948242 -41.9140625 540.40576172 C-49.3911849 552.83199875 -57.02782532 565.13337273 -65.01220703 577.24023438 C-65.64900391 578.20960938 -66.28580078 579.17898438 -66.94189453 580.17773438 C-68.94890984 583.20979184 -70.97657235 586.22736896 -73.01220703 589.24023438 C-73.5379834 590.01995605 -74.06375977 590.79967773 -74.60546875 591.60302734 C-86.73550243 609.56986932 -99.26567675 627.14918296 -112.52050781 644.30322266 C-113.91036116 646.10798477 -115.28974729 647.9200883 -116.66455078 649.73632812 C-121.70207724 656.3767039 -126.94437722 662.79452737 -132.36376953 669.12304688 C-134.78159679 671.95167847 -137.11991129 674.83850322 -139.44970703 677.74023438 C-144.21332613 683.58880587 -149.31832217 689.08139018 -154.47265625 694.58300781 C-155.98205677 696.20777957 -157.47072667 697.849073 -158.95361328 699.49804688 C-174.5061792 716.74003719 -192.05424446 730.8588697 -211.17041016 743.9621582 C-212.86200651 745.13600589 -214.51735444 746.3616437 -216.16845703 747.59179688 C-220.81225272 750.28366745 -224.92608849 749.325273 -230.01220703 748.24023438 C-232.24773833 747.4195422 -233.9793501 746.5039022 -236.01220703 745.24023438 C-235.77796371 741.13848435 -235.60297991 738.8891501 -232.78955078 735.79882812 C-231.38382812 734.74888672 -231.38382812 734.74888672 -229.94970703 733.67773438 C-228.94681641 732.906875 -227.94392578 732.13601563 -226.91064453 731.34179688 C-225.26463062 730.14832588 -223.60918199 728.96702264 -221.92626953 727.82617188 C-214.71290158 722.86507915 -209.48570046 715.9825831 -204.01220703 709.24023438 C-203.55974609 708.68303711 -203.10728516 708.12583984 -202.64111328 707.55175781 C-196.79238357 700.30158916 -191.18139447 692.86560073 -185.57470703 685.42773438 C-185.00260498 684.67089355 -184.43050293 683.91405273 -183.84106445 683.13427734 C-173.07707701 668.77533579 -163.01125313 653.92832179 -153.07470703 638.99023438 C-152.50505219 638.1348407 -151.93539734 637.27944702 -151.34848022 636.39813232 C-143.5238501 624.64014324 -135.78148149 612.85569181 -128.51367188 600.74267578 C-126.83092094 597.93809089 -125.13447198 595.14200107 -123.43798828 592.34570312 C-110.86313061 571.56058586 -98.70468839 550.5343063 -87.01220703 529.24023438 C-91.91583067 529.11137717 -96.30654743 529.53024168 -101.10595703 530.52539062 C-101.7657254 530.66157806 -102.42549377 530.7977655 -103.10525513 530.93807983 C-105.2429703 531.38375655 -107.37770193 531.84194371 -109.51220703 532.30273438 C-110.24928894 532.45984894 -110.98637085 532.6169635 -111.74578857 532.77883911 C-121.75932928 534.92308858 -131.5602029 537.40238401 -141.31542969 540.53881836 C-150.66533979 543.5281605 -160.14940233 545.927633 -169.66699219 548.31225586 C-176.20449253 549.96017371 -182.68869615 551.70929536 -189.14501953 553.64648438 C-199.02567866 556.60058203 -209.0058971 559.12582139 -219.01220703 561.61523438 C-219.96697937 561.85356995 -220.92175171 562.09190552 -221.90545654 562.33746338 C-239.52767305 566.72680883 -257.20189778 570.69281566 -275.01220703 574.24023438 C-276.21055176 574.47967773 -277.40889648 574.71912109 -278.64355469 574.96582031 C-285.17410191 576.2631132 -291.71079519 577.52021705 -298.25830078 578.72900391 C-300.73090068 579.18801314 -303.1996351 579.66378609 -305.66845703 580.14257812 C-360.04123165 590.34245677 -420.84089562 586.52707932 -467.87548828 555.34179688 C-498.68312901 533.49556828 -517.61005053 506.07104893 -528.93408203 470.28710938 C-529.91386468 467.12192605 -529.91386468 467.12192605 -532.01220703 464.24023438 C-534.83958111 454.03753928 -534.44910914 443.11225307 -534.44970703 432.61523438 C-534.45177155 431.71370636 -534.45383606 430.81217834 -534.45596313 429.8833313 C-534.44886871 412.57887038 -533.1985414 395.42947461 -526.76879883 379.16381836 C-525.97439072 377.14408894 -525.25449113 375.10847061 -524.54736328 373.05664062 C-517.42415587 352.45354523 -508.1416477 333.50725323 -493.05517578 317.45898438 C-490.98323125 315.28256283 -490.98323125 315.28256283 -489.25048828 312.89648438 C-474.61211463 295.52459243 -453.56358135 283.75036288 -431.94287109 277.77832031 C-430.09153817 277.26234437 -428.2507114 276.70911096 -426.41064453 276.15429688 C-398.17134766 267.97166837 -366.80316943 267.75212597 -338.01220703 273.24023438 C-337.13790039 273.40652344 -336.26359375 273.5728125 -335.36279297 273.74414062 C-320.27384167 276.75858151 -305.76009521 281.95155757 -294.01220703 292.24023438 C-293.20396484 292.94148438 -292.39572266 293.64273437 -291.56298828 294.36523438 C-287.69075395 297.79178553 -283.92806986 301.28184079 -280.32470703 304.99023438 C-276.18908599 309.18437836 -271.92185027 313.02998064 -266.01220703 314.24023438 C-264.19087039 306.45630964 -262.40173964 298.67323832 -261.05517578 290.79101562 C-258.3155777 274.80249803 -254.72778727 259.07528028 -250.94970703 243.30273438 C-250.68826904 242.20429199 -250.42683105 241.10584961 -250.1574707 239.97412109 C-247.51359659 228.89384743 -244.82370571 217.98152335 -241.01220703 207.24023438 C-240.24108855 204.68805013 -239.53742652 202.12234754 -238.82470703 199.55273438 C-230.40483048 170.37992434 -219.1587555 141.01214706 -203.01220703 115.24023438 C-201.96806641 113.561875 -201.96806641 113.561875 -200.90283203 111.84960938 C-165.31567298 56.85127266 -112.38223921 18.56481255 -48.13134766 4.61474609 C-31.97455257 1.23354137 -16.49268851 0.0324606 0 0 Z M-48.01220703 101.24023438 C-49.45104248 101.84279053 -49.45104248 101.84279053 -50.91894531 102.45751953 C-83.56987508 116.23741278 -111.68104709 135.50642772 -133.84814453 163.51757812 C-136.10811266 166.36089543 -138.46110163 169.10769474 -140.82470703 171.86523438 C-180.72204251 219.77903603 -204.60344893 279.38632775 -216.63720703 339.99023438 C-224.15899266 377.84366655 -224.15899266 377.84366655 -234.29736328 384.81054688 C-247.4733314 391.93819578 -263.15118411 391.85082038 -277.45751953 388.41210938 C-283.63510533 386.37554263 -289.24098259 383.31286315 -294.97998047 380.28662109 C-324.34442808 365.16696438 -355.62810665 360.32857828 -387.50830078 370.33789062 C-411.85263007 378.95923173 -431.93995495 396.48312452 -443.63720703 419.42773438 C-449.26029947 431.44070458 -449.74604524 443.4208487 -445.33251953 455.98242188 C-441.00601994 466.6578676 -436.18252912 475.08463359 -428.01220703 483.24023438 C-427.47208984 483.85125 -426.93197266 484.46226562 -426.37548828 485.09179688 C-410.11321031 503.03355443 -382.25939166 510.91856057 -358.9197998 512.37039185 C-353.51419608 512.60285392 -348.10957321 512.63080272 -342.69970703 512.61523438 C-341.84851288 512.61336121 -340.99731873 512.61148804 -340.12033081 512.60955811 C-307.3110067 512.45486723 -276.22338119 505.89827187 -244.28961182 498.95239258 C-234.26482831 496.77407398 -224.23420909 494.6233087 -214.19970703 492.49023438 C-213.05326721 492.24612823 -211.90682739 492.00202209 -210.72564697 491.7505188 C-185.26795286 486.34893616 -159.69454734 481.58874687 -134.1027832 476.87207031 C-133.31867034 476.72752568 -132.53455748 476.58298105 -131.72668362 476.43405628 C-127.37576465 475.63243558 -123.0242472 474.83420399 -118.67203426 474.03963947 C-116.72867902 473.68168306 -114.78713599 473.31393262 -112.84564209 472.9460144 C-110.20960662 472.46068958 -107.58602217 472.01204397 -104.93902588 471.6020813 C-97.65449431 470.41759946 -91.62238579 469.3968695 -87.01220703 463.24023438 C-85.12615018 460.35789729 -83.60246135 457.38247171 -82.12158203 454.27539062 C-81.69535553 453.4144429 -81.26912903 452.55349518 -80.82998657 451.66645813 C-79.45830862 448.88596778 -78.10999703 446.09487087 -76.76220703 443.30273438 C-75.81379601 441.36736567 -74.86408221 439.43263484 -73.91308594 437.49853516 C-71.6413509 432.86815929 -69.38808628 428.22916393 -67.14489746 423.5848999 C-66.19091215 421.61015339 -65.23332168 419.6371491 -64.27490234 417.66455078 C-61.67758453 412.31803049 -59.12472659 406.95198467 -56.59179688 401.57470703 C-55.00748715 398.23027084 -53.40895621 394.89297495 -51.80717468 391.55688477 C-26.94302835 339.77057295 -4.38670175 286.70857299 14.26629639 232.3414917 C15.02308726 230.13744471 15.78479942 227.93513503 16.546875 225.73291016 C23.44278451 205.75936929 29.77930959 185.72858132 34.98779297 165.24023438 C35.25205078 164.20640625 35.51630859 163.17257812 35.78857422 162.10742188 C42.48358156 136.3892436 42.48358156 136.3892436 36.36279297 111.27539062 C29.32972548 100.86565153 20.75663877 94.16903096 8.38378906 91.62402344 C-11.17082473 88.49177839 -30.11609589 93.71593973 -48.01220703 101.24023438 Z " fill="#FCBFCA" transform="translate(705.01220703125,250.759765625)"/>
<path d="M0 0 C1.1034375 -0.01224609 2.206875 -0.02449219 3.34375 -0.03710938 C23.00816526 -0.07172982 42.33653928 5.3526429 56.7109375 19.32421875 C73.40831448 38.15372233 74.19400712 58.99993979 73.25 83.1875 C72.78482204 89.30672504 71.60790487 95.21222658 70.25 101.1875 C70.05664062 102.0837207 69.86328125 102.97994141 69.6640625 103.90332031 C65.88680261 121.31485627 60.7599438 138.25714821 55.25 155.1875 C55.02207764 155.88975708 54.79415527 156.59201416 54.55932617 157.31555176 C26.47840362 243.78489411 -10.78143787 326.14355884 -54.4375 413.6875 C-54.94916718 414.71351318 -55.46083435 415.73952637 -55.98800659 416.79663086 C-57.43106579 419.68851718 -58.87705791 422.57891445 -60.32421875 425.46875 C-60.75865295 426.33959229 -61.19308716 427.21043457 -61.64068604 428.10766602 C-62.03729431 428.89778076 -62.43390259 429.68789551 -62.8425293 430.50195312 C-63.36160103 431.5389032 -63.36160103 431.5389032 -63.89115906 432.59680176 C-64.75 434.1875 -64.75 434.1875 -65.75 435.1875 C-67.99200398 435.60883289 -70.24466991 435.97349305 -72.5 436.31640625 C-73.96945864 436.54446968 -75.43885674 436.77292344 -76.90820312 437.00170898 C-77.69461182 437.12295135 -78.48102051 437.24419373 -79.29125977 437.36911011 C-98.3597876 440.32306572 -117.26822266 443.9280166 -136.18978882 447.69587708 C-144.14644266 449.27621576 -152.11790358 450.77261288 -160.09222412 452.26071167 C-173.45691838 454.75937814 -186.8024344 457.34784462 -200.125 460.0625 C-200.93243652 460.22699646 -201.73987305 460.39149292 -202.57177734 460.56097412 C-214.0769963 462.91600959 -225.50952789 465.51584124 -236.93399048 468.23294067 C-250.70367017 471.50222177 -264.46321818 474.37059229 -278.4375 476.625 C-279.1714801 476.74474182 -279.90546021 476.86448364 -280.66168213 476.987854 C-299.55098106 480.03737446 -318.23859267 481.57440462 -337.375 481.5 C-338.80635788 481.49776428 -338.80635788 481.49776428 -340.26663208 481.4954834 C-359.96577692 481.44036536 -380.11141818 481.28791212 -398.75 474.1875 C-400.33187775 473.6829138 -401.91512889 473.18260405 -403.5 472.6875 C-427.06924014 464.66029503 -450.88729984 448.6813912 -462.75 426.1875 C-472.9539252 404.20293607 -480.36937817 377.49196955 -471.9440918 353.70239258 C-471.24138564 351.85295076 -470.49595965 350.01992331 -469.75 348.1875 C-469.29238281 346.97707031 -468.83476562 345.76664063 -468.36328125 344.51953125 C-462.9582308 330.94026751 -454.75577138 320.57227787 -444.75 310.1875 C-444.16734375 309.54167969 -443.5846875 308.89585937 -442.984375 308.23046875 C-422.25357331 285.87680127 -388.02369198 274.37078627 -358.22900391 273.078125 C-323.99318755 272.09096864 -289.26663759 280.6671826 -260.75 300.1875 C-258.0040274 301.5604863 -255.7910953 301.31162634 -252.75 301.1875 C-249.70353527 300.55815367 -249.70353527 300.55815367 -248.90185547 298.56054688 C-246.89420216 292.00409506 -245.32699773 285.38761226 -243.875 278.6875 C-243.6167041 277.51493652 -243.3584082 276.34237305 -243.09228516 275.13427734 C-241.32615121 267.04735706 -239.70433103 258.93759633 -238.125 250.8125 C-236.69096836 243.47874258 -235.13889411 236.32684189 -232.7578125 229.23046875 C-231.80880435 226.36505268 -230.99649969 223.48100434 -230.20068359 220.57006836 C-214.6250684 164.56258694 -182.99620581 110.00041283 -142.75 68.1875 C-142.03569824 67.44064941 -141.32139648 66.69379883 -140.58544922 65.92431641 C-130.02407539 54.93782527 -119.44308911 44.67490181 -106.75 36.1875 C-105.65558594 35.4553125 -104.56117188 34.723125 -103.43359375 33.96875 C-73.19674281 14.67652609 -36.0809751 0.02078397 0 0 Z M-44.75 40.1875 C-46.18883545 40.79005615 -46.18883545 40.79005615 -47.65673828 41.40478516 C-80.30766805 55.1846784 -108.41884006 74.45369335 -130.5859375 102.46484375 C-132.84590563 105.30816105 -135.1988946 108.05496036 -137.5625 110.8125 C-177.45983548 158.72630165 -201.3412419 218.33359338 -213.375 278.9375 C-220.89678563 316.79093217 -220.89678563 316.79093217 -231.03515625 323.7578125 C-244.21112437 330.88546141 -259.88897708 330.79808601 -274.1953125 327.359375 C-280.3728983 325.32280825 -285.97877556 322.26012877 -291.71777344 319.23388672 C-321.08222105 304.11423001 -352.36589962 299.2758439 -384.24609375 309.28515625 C-408.59042304 317.90649736 -428.67774792 335.43039014 -440.375 358.375 C-445.99809244 370.3879702 -446.48383821 382.36811433 -442.0703125 394.9296875 C-437.74381291 405.60513323 -432.92032209 414.03189921 -424.75 422.1875 C-424.20988281 422.79851562 -423.66976562 423.40953125 -423.11328125 424.0390625 C-406.85100328 441.98082005 -378.99718463 449.8658262 -355.65759277 451.31765747 C-350.25198905 451.55011954 -344.84736618 451.57806834 -339.4375 451.5625 C-338.58630585 451.56062683 -337.73511169 451.55875366 -336.85812378 451.55682373 C-304.04879967 451.40213286 -272.96117416 444.84553749 -241.02740479 437.8996582 C-231.00262128 435.7213396 -220.97200206 433.57057433 -210.9375 431.4375 C-209.79106018 431.19339386 -208.64462036 430.94928772 -207.46343994 430.69778442 C-182.00574583 425.29620178 -156.43234031 420.5360125 -130.84057617 415.81933594 C-130.05646331 415.67479131 -129.27235044 415.53024668 -128.46447659 415.38132191 C-124.11355762 414.57970121 -119.76204017 413.78146962 -115.40982723 412.9869051 C-113.46647199 412.62894868 -111.52492896 412.26119825 -109.58343506 411.89328003 C-106.94739959 411.40795521 -104.32381514 410.95930959 -101.67681885 410.54934692 C-94.39228727 409.36486508 -88.36017875 408.34413512 -83.75 402.1875 C-81.86394315 399.30516291 -80.34025432 396.32973733 -78.859375 393.22265625 C-78.4331485 392.36170853 -78.006922 391.5007608 -77.56777954 390.61372375 C-76.19610159 387.83323341 -74.84779 385.04213649 -73.5 382.25 C-72.55158898 380.31463129 -71.60187518 378.37990047 -70.65087891 376.44580078 C-68.37914387 371.81542491 -66.12587924 367.17642956 -63.88269043 362.53216553 C-62.92870512 360.55741902 -61.97111465 358.58441472 -61.01269531 356.61181641 C-58.4153775 351.26529611 -55.86251956 345.89925029 -53.32958984 340.52197266 C-51.74528012 337.17753646 -50.14674917 333.84024057 -48.54496765 330.50415039 C-23.68082132 278.71783857 -1.12449471 225.65583862 17.52850342 171.28875732 C18.28529429 169.08471034 19.04700646 166.88240066 19.80908203 164.68017578 C26.70499155 144.70663491 33.04151662 124.67584694 38.25 104.1875 C38.51425781 103.15367187 38.77851562 102.11984375 39.05078125 101.0546875 C45.74578859 75.33650922 45.74578859 75.33650922 39.625 50.22265625 C32.59193251 39.81291716 24.0188458 33.11629659 11.64599609 30.57128906 C-7.9086177 27.43904402 -26.85388886 32.66320535 -44.75 40.1875 Z " fill="#000000" transform="translate(701.75,311.8125)"/>
<path d="M0 0 C0.66 0 1.32 0 2 0 C2.02333772 16.2634323 2.04098348 32.52685919 2.05181217 48.79030418 C2.05697327 56.34132827 2.06401244 63.89234196 2.07543945 71.44335938 C2.08539196 78.02314086 2.09185479 84.60291481 2.09408849 91.18270361 C2.09539463 94.66816172 2.09847441 98.15359831 2.10573006 101.63904953 C2.11375516 105.52548381 2.11399077 109.41189683 2.11352539 113.29833984 C2.11712067 114.45999161 2.12071594 115.62164337 2.12442017 116.8184967 C2.1230455 117.87301529 2.12167084 118.92753387 2.12025452 120.01400757 C2.12163721 121.39393167 2.12163721 121.39393167 2.12304783 122.80173302 C2 125 2 125 1 127 C0.34 127 -0.32 127 -1 127 C-1.66 129.31 -2.32 131.62 -3 134 C-3.66 134 -4.32 134 -5 134 C-5.4026709 135.07362793 -5.4026709 135.07362793 -5.81347656 136.16894531 C-7.01552009 139.03703106 -8.41459043 141.61360522 -9.984375 144.296875 C-10.58306396 145.32586914 -11.18175293 146.35486328 -11.79858398 147.41503906 C-12.44255127 148.51557617 -13.08651855 149.61611328 -13.75 150.75 C-15.11316143 153.09231148 -16.47307278 155.43649795 -17.83203125 157.78125 C-18.17851212 158.37875061 -18.52499298 158.97625122 -18.88197327 159.59185791 C-23.06438063 166.81795521 -27.13089359 174.10856388 -31.19335938 181.40258789 C-33.62880538 185.77311793 -36.06611116 190.140014 -38.58203125 194.46484375 C-39.14289429 195.43019043 -39.14289429 195.43019043 -39.71508789 196.41503906 C-40.65401662 198.02311233 -41.600046 199.62703442 -42.546875 201.23046875 C-44.04884873 204.09310147 -45.06608542 206.90984145 -46 210 C-46.66 210 -47.32 210 -48 210 C-48.37125 211.2065625 -48.37125 211.2065625 -48.75 212.4375 C-50.26078647 216.74324143 -52.10188856 220.85364007 -54 225 C-54.66 225 -55.32 225 -56 225 C-56.25007813 225.84046875 -56.50015625 226.6809375 -56.7578125 227.546875 C-58.35670251 231.99158812 -60.60089927 235.97793444 -62.90234375 240.08203125 C-65.28481638 244.42121144 -67.15962535 248.82335229 -68.95507812 253.43408203 C-70.68139694 257.67324341 -72.74128144 261.73348391 -74.8125 265.8125 C-75.24755859 266.67762207 -75.68261719 267.54274414 -76.13085938 268.43408203 C-79.17169688 274.45193975 -82.32748535 280.39181281 -85.625 286.2734375 C-87.06158194 289.1221142 -88.06535107 291.95340396 -89 295 C-89.66 295 -90.32 295 -91 295 C-91.22558594 295.92425781 -91.45117188 296.84851563 -91.68359375 297.80078125 C-93.2188013 303.17468396 -95.69733663 308.13936489 -98.0625 313.1875 C-98.97318119 315.1378649 -99.88085981 317.08963533 -100.78515625 319.04296875 C-101.18613525 319.89914795 -101.58711426 320.75532715 -102.00024414 321.63745117 C-102.89780158 323.75849229 -103.51928556 325.75287908 -104 328 C-104.66 328 -105.32 328 -106 328 C-106.36480469 329.16402344 -106.72960937 330.32804687 -107.10546875 331.52734375 C-109.48848353 338.67359604 -112.44366922 345.60137845 -115.3125 352.5625 C-119.48359196 362.69091823 -123.50578267 372.853682 -127.3052063 383.12765503 C-128.36958903 385.99597644 -129.45415682 388.85665713 -130.53515625 391.71875 C-136.01755827 406.37005243 -141.10808258 421.12051819 -145.9375 436 C-146.21240265 436.84522217 -146.4873053 437.69044434 -146.77053833 438.5612793 C-153.38390808 457.45063695 -153.38390808 457.45063695 -157 477 C-157.66 477 -158.32 477 -159 477 C-159.07347656 477.85271484 -159.07347656 477.85271484 -159.1484375 478.72265625 C-159.63106689 483.70705293 -160.597718 488.17965563 -162 493 C-162.42362351 495.66412119 -162.71743092 498.3155937 -163 501 C-163.66 501 -164.32 501 -165 501 C-165.04535889 501.66862061 -165.09071777 502.33724121 -165.13745117 503.02612305 C-165.66490164 509.79556288 -166.79923301 516.20289996 -168.3125 522.8125 C-171.9670884 539.58676923 -174.03993258 556.59834051 -175.80859375 573.6640625 C-175.93669434 574.88762451 -176.06479492 576.11118652 -176.19677734 577.37182617 C-176.43386362 579.68333826 -176.66012717 581.99599616 -176.87353516 584.30981445 C-177.4576992 590.10793419 -178.22542783 594.84114075 -181 600 C-183.34215049 601.8737204 -184.51729801 602 -187.5 602 C-191.26272236 600.49491105 -192.17248062 598.59202085 -194 595 C-198.88633845 579.35757063 -198.34816477 561.41233608 -198.31567383 545.22583008 C-198.31252747 541.9659634 -198.33602443 538.7070202 -198.36132812 535.44726562 C-198.40268359 521.33469665 -197.30634628 507.623917 -195.36228943 493.64979553 C-194.83497487 489.79300131 -194.38568383 485.92924466 -193.9375 482.0625 C-193.25498961 476.29691219 -192.17818879 470.67967012 -191 465 C-190.72717571 463.67168874 -190.45465618 462.34331487 -190.18237305 461.01489258 C-189.24965062 456.46762797 -188.31247628 451.9212865 -187.375 447.375 C-187.04684855 445.78255753 -186.71872334 444.19010966 -186.390625 442.59765625 C-185.59405246 438.73170843 -184.79712514 434.86583391 -184 431 C-183.34 431 -182.68 431 -182 431 C-181.97421875 430.30777344 -181.9484375 429.61554688 -181.921875 428.90234375 C-181.58527631 423.09601638 -180.79037965 417.70917239 -179.2421875 412.09765625 C-179.06571686 411.45352783 -178.88924622 410.80939941 -178.70742798 410.14575195 C-178.14384786 408.09558375 -177.57233923 406.04773831 -177 404 C-176.63196551 402.66924363 -176.26412596 401.33843333 -175.89648438 400.00756836 C-174.73891884 395.83373191 -173.56081144 391.66589138 -172.375 387.5 C-172.16334198 386.75574768 -171.95168396 386.01149536 -171.73361206 385.24468994 C-166.33768274 366.32742108 -160.2381796 347.65436344 -154 329 C-153.34 329 -152.68 329 -152 329 C-152 327.35 -152 325.7 -152 324 C-152.70455322 324.01595215 -153.40910645 324.0319043 -154.13500977 324.04833984 C-162.16342482 324.1491615 -169.96328629 323.49607585 -177.9375 322.625 C-205.3413502 319.82089478 -232.64175497 318.81421736 -260.1875 318.75 C-261.32920654 318.74473297 -262.47091309 318.73946594 -263.6472168 318.73403931 C-290.9703264 318.53655272 -290.9703264 318.53655272 -318 322 C-319.60303627 322.06371368 -321.20837672 322.08644214 -322.8125 322.0625 C-323.60269531 322.05347656 -324.39289062 322.04445313 -325.20703125 322.03515625 C-326.09455078 322.01775391 -326.09455078 322.01775391 -327 322 C-322.95003163 313.80312252 -318.85828517 305.63387761 -314.5625 297.5625 C-314.05009766 296.59654907 -314.05009766 296.59654907 -313.52734375 295.61108398 C-311.12570347 291.12570347 -311.12570347 291.12570347 -310 290 C-308.61898745 289.85518031 -307.23127649 289.77295926 -305.84375 289.71875 C-304.98523438 289.68136719 -304.12671875 289.64398437 -303.2421875 289.60546875 C-302.33726562 289.57066406 -301.43234375 289.53585937 -300.5 289.5 C-298.73946931 289.42989037 -296.97904746 289.3569898 -295.21875 289.28125 C-294.43435547 289.25095703 -293.64996094 289.22066406 -292.84179688 289.18945312 C-290.53090575 289.03539372 -288.28510066 288.78526197 -285.99023438 288.49291992 C-279.97943878 287.80894407 -273.98083261 287.83825563 -267.9375 287.83203125 C-266.68537216 287.82775116 -265.43324432 287.82347107 -264.14317322 287.81906128 C-260.09540979 287.80908044 -256.04776773 287.80862595 -252 287.8125 C-251.31094196 287.81291416 -250.62188393 287.81332832 -249.91194534 287.81375504 C-213.89891057 287.8409619 -177.1990617 288.43806607 -142 297 C-141.84144531 296.42894531 -141.68289063 295.85789062 -141.51953125 295.26953125 C-140.13369408 290.45355566 -138.57432668 285.76114863 -136.7578125 281.08984375 C-136.3151001 279.94926514 -135.8723877 278.80868652 -135.41625977 277.63354492 C-134.94889404 276.4344751 -134.48152832 275.23540527 -134 274 C-133.53843506 272.80802002 -133.07687012 271.61604004 -132.60131836 270.38793945 C-126.46525649 254.5659849 -120.17472767 238.81701284 -113.5625 223.1875 C-113.2758548 222.50675415 -112.98920959 221.8260083 -112.69387817 221.12463379 C-109.46676831 213.47341589 -106.08380991 205.95034426 -102.27099609 198.56713867 C-101.06082342 196.12285022 -100.03176243 193.67300413 -99.0625 191.125 C-97.01056586 185.78481993 -94.41237539 180.75839622 -91.78125 175.6875 C-90.43414243 173.00471828 -89.31555499 170.28943266 -88.24121094 167.48681641 C-85.92899064 161.66715414 -83.18146565 156.10985605 -80.359375 150.5234375 C-79.83232971 149.47217682 -79.30528442 148.42091614 -78.76226807 147.33779907 C-77.09529333 144.01495123 -75.42274712 140.69494508 -73.75 137.375 C-72.61160822 135.10825917 -71.47358376 132.84133383 -70.3359375 130.57421875 C-67.56153406 125.04733922 -64.7825637 119.52277527 -62 114 C-61.34 114 -60.68 114 -60 114 C-59.86464844 113.42894531 -59.72929688 112.85789062 -59.58984375 112.26953125 C-57.53230148 104.51986606 -53.95765692 97.91776744 -50 91 C-49.34 91 -48.68 91 -48 91 C-47.81824219 90.41992188 -47.63648438 89.83984375 -47.44921875 89.2421875 C-45.9581894 84.60852707 -44.31666424 80.30237645 -42 76 C-41.34 76 -40.68 76 -40 76 C-39.7525 75.01 -39.505 74.02 -39.25 73 C-38.04187859 68.71904804 -36.09178706 64.90940785 -34 61 C-33.34 61 -32.68 61 -32 61 C-31.91878906 60.33613281 -31.83757812 59.67226563 -31.75390625 58.98828125 C-30.75192188 55.01668518 -28.91366546 51.75415441 -26.9375 48.1875 C-26.56044922 47.49462891 -26.18339844 46.80175781 -25.79492188 46.08789062 C-24.86916148 44.38871015 -23.93537688 42.69390575 -23 41 C-22.34 41 -21.68 41 -21 41 C-20.885354 40.27417725 -20.77070801 39.54835449 -20.65258789 38.80053711 C-19.97672556 35.90011931 -18.99775607 33.79010293 -17.55859375 31.19140625 C-17.06069336 30.28535645 -16.56279297 29.37930664 -16.04980469 28.44580078 C-15.51774414 27.49431152 -14.98568359 26.54282227 -14.4375 25.5625 C-13.89899414 24.58780762 -13.36048828 23.61311523 -12.80566406 22.60888672 C-8.60861667 15.03192728 -4.34690043 7.49201075 0 0 Z " fill="#FBBEC9" transform="translate(1030,445)"/>
<path d="M0 0 C7.51182633 2.296157 14.43376726 5.39785939 21.5 8.8125 C22.57636719 9.32103516 23.65273438 9.82957031 24.76171875 10.35351562 C35.33214617 15.43272831 45.35704412 21.03556618 52 31 C52.07905064 33.33199388 52.08798769 35.66832622 52 38 C46.23861057 38.49490055 41.83066409 36.73462866 36.5625 34.6875 C35.74201172 34.37876953 34.92152344 34.07003906 34.07617188 33.75195312 C30.56811263 32.4220823 27.1209002 31.05521539 23.70703125 29.49609375 C18.30918162 27.31761492 12.74012442 25.88775041 7.125 24.375 C4.85596367 23.76078659 2.58768713 23.14375697 0.3203125 22.5234375 C-0.67726074 22.25450684 -1.67483398 21.98557617 -2.70263672 21.70849609 C-5 21 -5 21 -6 20 C-5.75514883 12.40961388 -3.40865099 6.72925565 0 0 Z " fill="#F6BAC5" transform="translate(947,759)"/>
<path d="M0 0 C0.66 0 1.32 0 2 0 C2 41.25 2 82.5 2 125 C1.67 125 1.34 125 1 125 C0.67 85.73 0.34 46.46 0 6 C-1.32 6.99 -2.64 7.98 -4 9 C-2.80100302 5.9168649 -1.52299523 2.93720508 0 0 Z " fill="#BA8C95" transform="translate(1030,445)"/>
<path d="M0 0 C0.66 0.33 1.32 0.66 2 1 C-4.27 7.27 -10.54 13.54 -17 20 C-17.66 19.67 -18.32 19.34 -19 19 C-14.15525095 13.42629565 -9.2883966 8.13125855 -3.62890625 3.375 C-1.89099423 1.94714425 -1.89099423 1.94714425 0 0 Z " fill="#E0A9B3" transform="translate(228,552)"/>
<path d="M0 0 C0.66 0.33 1.32 0.66 2 1 C-1.3 4.3 -4.6 7.6 -8 11 C-8.33 10.34 -8.66 9.68 -9 9 C-6.31941902 5.42589203 -3.57410797 2.68058098 0 0 Z " fill="#D9A4AD" transform="translate(478,982)"/>
<path d="M0 0 C0.185625 0.61875 0.37125 1.2375 0.5625 1.875 C2.71437233 5.05602866 5.37533763 5.19451947 9 6 C9 6.33 9 6.66 9 7 C6.03 6.67 3.06 6.34 0 6 C-1 2 -1 2 0 0 Z " fill="#654C51" transform="translate(940,775)"/>
</svg>
